<svg width="60" height="61" viewBox="0 0 60 61" fill="none" xmlns="http://www.w3.org/2000/svg">
<circle cx="31.1113" cy="30.6801" r="28.5658" fill="white"/>
<path fill-rule="evenodd" clip-rule="evenodd" d="M56.6326 21.7579C60.2149 31.6407 57.8763 42.6305 50.5524 50.3366C43.2286 58.0413 32.1127 61.2069 21.6486 58.5656C6.76862 53.9666 -1.78295 38.8809 2.19885 24.2531C6.18064 9.62535 21.2995 0.58535 36.587 3.69248C40.294 4.64014 43.7675 6.29657 46.8029 8.56487" fill="white"/>
<path d="M56.6326 21.7579C60.2149 31.6407 57.8763 42.6305 50.5524 50.3366C43.2286 58.0413 32.1127 61.2069 21.6486 58.5656C6.76862 53.9666 -1.78295 38.8809 2.19885 24.2531C6.18064 9.62535 21.2995 0.585349 36.587 3.69248C40.294 4.64014 43.7675 6.29657 46.8029 8.56487" stroke="#8448FB" stroke-width="1.121" stroke-linecap="round" stroke-linejoin="round"/>
<path opacity="0.1" fill-rule="evenodd" clip-rule="evenodd" d="M8.30566 20.6802H20.719C20.719 20.6802 20.5641 17.5006 17.7986 17.1934C15.4404 16.9313 14.6544 18.9267 14.6544 18.9267C14.6544 18.9267 14.1506 17.8787 12.6188 17.9391C11.1714 17.9962 10.9459 19.4507 10.9459 19.4507C10.9459 19.4507 8.30566 18.2817 8.30566 20.6802Z" fill="#5E00FF"/>
<path fill-rule="evenodd" clip-rule="evenodd" d="M38.5698 33.0962C38.5698 33.0962 38.7926 31.9821 40.1852 32.205C41.4407 32.4058 41.3921 33.189 41.3921 33.189C41.3921 33.189 41.8377 31.2952 44.2515 31.4251C46.4619 31.5441 46.6839 33.189 46.6839 33.189L38.5698 33.0962Z" fill="white"/>
<path fill-rule="evenodd" clip-rule="evenodd" d="M18.4345 42.9639C18.7629 43.8463 18.3142 44.8278 17.4322 45.1563C16.5501 45.4848 15.5688 45.0358 15.2404 44.1535C14.912 43.2712 15.3608 42.2896 16.2428 41.9611C17.1248 41.6326 18.1061 42.0816 18.4345 42.9639Z" fill="#14C6A8"/>
<path fill-rule="evenodd" clip-rule="evenodd" d="M17.1128 40.646C17.3583 41.3054 17.0228 42.0391 16.3636 42.2847C15.7043 42.5302 14.9709 42.1945 14.7255 41.5351C14.4799 40.8756 14.8154 40.142 15.4746 39.8965C16.1339 39.6509 16.8673 39.9865 17.1128 40.646Z" fill="#14C6A8"/>
<path fill-rule="evenodd" clip-rule="evenodd" d="M16.0098 38.8344C16.1778 39.2859 15.9482 39.7884 15.4967 39.9565C15.0453 40.1246 14.543 39.8948 14.3749 39.4432C14.2068 38.9916 14.4365 38.4892 14.888 38.321C15.3394 38.1529 15.8417 38.3828 16.0098 38.8344Z" fill="#14C6A8"/>
<path d="M17.8026 46.3256L16.3638 42.2847" stroke="#360077" stroke-width="0.678944" stroke-linecap="round" stroke-linejoin="round"/>
<path fill-rule="evenodd" clip-rule="evenodd" d="M20.5379 44.3284C20.269 45.0815 19.4407 45.4743 18.6878 45.2056C17.9348 44.9368 17.5424 44.1085 17.8113 43.3554C18.0801 42.6022 18.9085 42.2096 19.6615 42.4783C20.4144 42.7469 20.8068 43.5753 20.5379 44.3284Z" fill="#360077"/>
<path fill-rule="evenodd" clip-rule="evenodd" d="M20.945 42.0985C20.7441 42.6615 20.125 42.9549 19.5621 42.7541C18.9993 42.5533 18.7061 41.9342 18.9071 41.3713C19.108 40.8084 19.7272 40.5149 20.2899 40.7157C20.8527 40.9165 21.146 41.5356 20.945 42.0985Z" fill="#360077"/>
<path fill-rule="evenodd" clip-rule="evenodd" d="M21.22 40.3189C21.0823 40.7045 20.6581 40.9056 20.2725 40.7681C19.8869 40.6305 19.686 40.2063 19.8237 39.8206C19.9613 39.435 20.3855 39.2339 20.7711 39.3714C21.1567 39.509 21.3576 39.9332 21.22 40.3189Z" fill="#360077"/>
<path d="M18.2451 46.3255L19.6606 42.4781" stroke="#360077" stroke-width="0.678944" stroke-linecap="round" stroke-linejoin="round"/>
<path fill-rule="evenodd" clip-rule="evenodd" d="M19.9722 42.444C20.1141 43.6113 19.283 44.6726 18.1157 44.8145C16.9484 44.9564 15.8872 44.1251 15.7453 42.9579C15.6034 41.7907 16.4346 40.7294 17.6018 40.5874C18.7691 40.4455 19.8303 41.2768 19.9722 42.444Z" fill="#02AAA5"/>
<path fill-rule="evenodd" clip-rule="evenodd" d="M19.0417 39.2439C19.1478 40.1163 18.5265 40.9096 17.6541 41.0157C16.7817 41.1217 15.9885 40.5004 15.8824 39.628C15.7764 38.7556 16.3976 37.9624 17.27 37.8563C18.1424 37.7502 18.9357 38.3715 19.0417 39.2439Z" fill="#02AAA5"/>
<path fill-rule="evenodd" clip-rule="evenodd" d="M18.2296 36.7227C18.3023 37.3202 17.8768 37.8634 17.2795 37.936C16.682 38.0086 16.1388 37.5832 16.0662 36.9857C15.9935 36.3882 16.4189 35.8451 17.0164 35.7725C17.6138 35.6999 18.157 36.1252 18.2296 36.7227Z" fill="#02AAA5"/>
<path d="M18.2243 46.3425L17.0303 36.5217" stroke="#360077" stroke-width="0.678944" stroke-linecap="round" stroke-linejoin="round"/>
<path d="M17.8276 43.0777L18.881 42.2301" stroke="#360077" stroke-width="0.678944" stroke-linecap="round" stroke-linejoin="round"/>
<path d="M17.6261 41.8435L16.5845 41.0964" stroke="#360077" stroke-width="0.678944" stroke-linecap="round" stroke-linejoin="round"/>
<path d="M17.5229 40.5723L18.2499 39.9954" stroke="#360077" stroke-width="0.678944" stroke-linecap="round" stroke-linejoin="round"/>
<path d="M17.3212 39.3375L16.5386 38.8162" stroke="#360077" stroke-width="0.678944" stroke-linecap="round" stroke-linejoin="round"/>
<path d="M17.2183 38.0666L17.7361 37.6691" stroke="#360077" stroke-width="0.678944" stroke-linecap="round" stroke-linejoin="round"/>
<path d="M17.0179 36.8325L16.4644 36.5137" stroke="#360077" stroke-width="0.678944" stroke-linecap="round" stroke-linejoin="round"/>
<path fill-rule="evenodd" clip-rule="evenodd" d="M17.4533 43.7412C17.8465 44.3755 17.651 45.2085 17.0166 45.6018C16.3823 45.9949 15.5492 45.7994 15.1561 45.165C14.7628 44.5307 14.9584 43.6976 15.5927 43.3045C16.2272 42.9113 17.0601 43.1068 17.4533 43.7412Z" fill="#0ADBAC"/>
<path fill-rule="evenodd" clip-rule="evenodd" d="M16.0635 42.1465C16.3574 42.6207 16.2113 43.2433 15.7372 43.5372C15.263 43.8311 14.6404 43.6849 14.3465 43.2107C14.0526 42.7367 14.1988 42.114 14.6729 41.8201C15.147 41.5262 15.7697 41.6724 16.0635 42.1465Z" fill="#0ADBAC"/>
<path fill-rule="evenodd" clip-rule="evenodd" d="M14.9234 40.9112C15.1247 41.2361 15.0246 41.6627 14.6998 41.8641C14.3749 42.0654 13.9483 41.9653 13.747 41.6404C13.5457 41.3155 13.6458 40.889 13.9706 40.6877C14.2955 40.4863 14.722 40.5864 14.9234 40.9112Z" fill="#0ADBAC"/>
<path d="M17.4869 46.4526L14.1787 41.1152" stroke="#360077" stroke-width="0.678944" stroke-linecap="round" stroke-linejoin="round"/>
<path d="M16.3867 44.6782L16.7671 43.9093" stroke="#360077" stroke-width="0.678944" stroke-linecap="round" stroke-linejoin="round"/>
<path d="M15.9419 44.0214L15.1431 43.8691" stroke="#360077" stroke-width="0.678944" stroke-linecap="round" stroke-linejoin="round"/>
<path d="M15.5425 43.3175L15.8075 42.7908" stroke="#360077" stroke-width="0.678944" stroke-linecap="round" stroke-linejoin="round"/>
<path d="M15.0984 42.6595L14.5083 42.568" stroke="#360077" stroke-width="0.678944" stroke-linecap="round" stroke-linejoin="round"/>
<path d="M14.6987 41.9556L14.8912 41.5879" stroke="#360077" stroke-width="0.678944" stroke-linecap="round" stroke-linejoin="round"/>
<path fill-rule="evenodd" clip-rule="evenodd" d="M14.6689 48.4496C14.6689 49.6993 15.3583 50.7875 16.3771 51.3563H19.6157C20.6345 50.7875 21.3238 49.6993 21.3238 48.4496C21.3238 47.6336 21.0296 46.8866 20.5421 46.3077H15.4506C14.9631 46.8866 14.6689 47.6336 14.6689 48.4496Z" fill="#5E00FF"/>
<path fill-rule="evenodd" clip-rule="evenodd" d="M20.5419 46.3077H18.9866C19.474 46.8866 19.7682 47.6336 19.7682 48.4496C19.7682 49.6993 19.0789 50.7875 18.0601 51.3563H19.6154C20.6342 50.7875 21.3236 49.6993 21.3236 48.4496C21.3236 47.6336 21.0294 46.8866 20.5419 46.3077Z" fill="#4F1FAD"/>
<path fill-rule="evenodd" clip-rule="evenodd" d="M37.548 51.3108L23.1481 51.3194C21.4953 51.3205 20.1546 49.9814 20.1537 48.3287L20.1333 14.5158C20.1323 12.863 21.4714 11.5223 23.1241 11.5214L37.5241 11.5127C39.1769 11.5118 40.5175 12.8507 40.5185 14.5035L40.5388 48.3164C40.5399 49.9692 39.2008 51.3098 37.548 51.3108Z" fill="#5E23DC"/>
<path fill-rule="evenodd" clip-rule="evenodd" d="M37.548 51.3108L23.1481 51.3194C21.4953 51.3205 20.1546 49.9815 20.1537 48.3287L20.1333 14.5158C20.1323 12.863 21.4714 11.5223 23.1241 11.5214L37.5241 11.5127C39.1769 11.5118 40.5175 12.8507 40.5185 14.5035L40.5388 48.3164C40.5399 49.9692 39.2008 51.3098 37.548 51.3108Z" stroke="#5E00FF" stroke-width="0.678944" stroke-linecap="round" stroke-linejoin="round"/>
<path opacity="0.1" fill-rule="evenodd" clip-rule="evenodd" d="M33.1079 48.3229C33.1766 49.4569 32.313 50.4319 31.179 50.5005C30.045 50.5692 29.0701 49.7056 29.0014 48.5716C28.9327 47.4376 29.7963 46.4626 30.9303 46.394C32.0644 46.3253 33.0392 47.1889 33.1079 48.3229Z" fill="#5E00FF"/>
<path fill-rule="evenodd" clip-rule="evenodd" d="M38.7795 45.6776L22.0107 45.6483L22.0502 15.301L38.819 15.3303L38.7795 45.6776Z" fill="white"/>
<path fill-rule="evenodd" clip-rule="evenodd" d="M38.7795 45.6776L22.0107 45.6483L22.0502 15.301L38.819 15.3303L38.7795 45.6776Z" stroke="#5E00FF" stroke-width="0.678944" stroke-linecap="round" stroke-linejoin="round"/>
<path d="M31.9907 47.2242C32.2197 47.5334 32.3647 47.9103 32.3896 48.3229C32.4583 49.4569 31.5947 50.4319 30.4607 50.5005C29.3268 50.5692 28.3518 49.7056 28.2831 48.5716C28.2145 47.4376 29.078 46.4626 30.212 46.3939C30.6124 46.3698 30.993 46.4617 31.3208 46.6407" stroke="#5E00FF" stroke-width="0.678944" stroke-linecap="round" stroke-linejoin="round"/>
<g opacity="0.3">
<path d="M24.1357 33.2851H34.8036" stroke="#5E00FF" stroke-linecap="round" stroke-linejoin="round"/>
<path d="M24.1357 35.9254H36.3943" stroke="#5E00FF" stroke-linecap="round" stroke-linejoin="round"/>
</g>
<g opacity="0.3">
<path d="M24.1357 38.4556H34.8036" stroke="#5E00FF" stroke-linecap="round" stroke-linejoin="round"/>
<path d="M24.1357 41.0959H36.3943" stroke="#5E00FF" stroke-linecap="round" stroke-linejoin="round"/>
</g>
<path d="M24.5234 23.1415C23.8854 23.1415 23.3682 23.6595 23.3682 24.2986H25.6787C25.6787 23.6595 25.1615 23.1415 24.5234 23.1415Z" fill="#FEE662"/>
<path d="M26.098 23.5625C25.6919 23.5625 25.3628 23.8922 25.3628 24.2988H26.8331C26.8331 23.8922 26.504 23.5625 26.098 23.5625Z" fill="#FEE662"/>
<path d="M25.1304 29.1876V25.3878L27.2476 23.2035L35.1239 25.9578V29.282L25.1304 29.1865V29.1876Z" fill="#A99CFE"/>
<path d="M27.019 29.3031V25.3704L28.059 24.7363L29.1165 25.3704V29.3031H27.019Z" fill="#46258F"/>
<path d="M27.208 29.2005V25.5464L28.0605 25.0242L28.927 25.5464V29.2005H27.208Z" fill="#8C7DEA"/>
<path d="M27.3291 29.2168V25.6245L28.0605 25.1956L28.8058 25.635V29.2168H27.3291Z" fill="#46258F"/>
<path d="M28.6274 27.2412H28.4795V27.6165H28.6274V27.2412Z" fill="#8C7DEA"/>
<path d="M31.6855 27.677V25.8156H30.0609V27.677H31.6855Z" fill="#46258F"/>
<path d="M31.564 27.55V25.9426H30.1827V27.55H31.564Z" fill="#D6CFFF"/>
<path d="M29.9141 27.6785V27.8916H31.8335V27.6785H29.9141Z" fill="#46258F"/>
<g opacity="0.48">
<mask id="mask0_212_920" style="mask-type:luminance" maskUnits="userSpaceOnUse" x="30" y="25" width="2" height="3">
<path d="M31.5645 27.55V25.9426H30.1832V27.55H31.5645Z" fill="white"/>
</mask>
<g mask="url(#mask0_212_920)">
<path d="M31.9119 25.2172L29.2637 26.9227L29.684 27.5765L32.3322 25.871L31.9119 25.2172Z" fill="white"/>
<path d="M32.6639 25.9701L30.0156 27.6755L30.2772 28.0823L32.9254 26.3768L32.6639 25.9701Z" fill="white"/>
</g>
</g>
<path d="M30.8206 27.5593H30.9277V25.9333H30.8206V27.5593Z" fill="#46258F"/>
<path d="M30.0605 26.6923V26.7994H31.6853V26.6923H30.0605Z" fill="#46258F"/>
<path opacity="0.52" d="M25.1301 25.3879V26.1094C25.9569 25.3797 27.6748 23.8353 27.6748 23.8353L35.1236 26.6199V25.9578L27.2462 23.2024L25.1289 25.3867L25.1301 25.3879Z" fill="white"/>
<path d="M35.2925 26.2467L27.8577 23.398C27.7435 23.3538 27.6142 23.3817 27.5281 23.468L24.8832 25.7945C24.7621 25.9157 24.5665 25.9157 24.4453 25.7945C24.3242 25.6733 24.3242 25.4775 24.4453 25.3562L27.3743 22.7465C27.4605 22.6602 27.5898 22.6323 27.7039 22.6765L35.5138 25.6686C35.6734 25.7304 35.7537 25.9087 35.692 26.0696C35.6303 26.2293 35.4521 26.3097 35.2914 26.2479L35.2925 26.2467Z" fill="#5E40E0"/>
<path d="M30.4805 29.1178C30.5434 28.8579 30.8299 28.69 31.0651 28.7751C31.1396 28.676 31.2165 28.5735 31.3167 28.507C31.418 28.4406 31.5496 28.4149 31.6544 28.4744C31.6905 28.4954 31.7231 28.5257 31.7615 28.5397C31.7965 28.5525 31.8349 28.5513 31.871 28.5571C32.0865 28.5956 32.175 28.8742 32.2204 29.105" fill="#25BA82"/>
<path d="M36.4315 29.0944C36.4641 28.937 36.4152 28.7634 36.308 28.6526C36.2009 28.5419 36.0378 28.4976 35.8946 28.5419C35.8655 28.5512 35.8364 28.5629 35.8061 28.5582C35.7514 28.5501 35.7187 28.4906 35.6896 28.4393C35.5685 28.226 35.3717 28.0512 35.1434 28.0197C34.914 27.9882 34.6613 28.1304 34.5961 28.3706C34.3864 28.2214 34.0603 28.3368 33.973 28.592C33.676 28.5267 33.3522 28.7704 33.3057 29.0956" fill="#25BA82"/>
<path d="M33.8453 29.092C33.758 28.8041 33.4109 28.6502 33.1628 28.789C33.0976 28.6526 33.001 28.5244 32.8682 28.4684C32.7354 28.4125 32.5642 28.4498 32.4885 28.5803C32.4757 28.6025 32.4652 28.6269 32.4466 28.6433C32.4152 28.6701 32.3697 28.6631 32.3301 28.6631C32.1147 28.6642 31.9726 28.8974 31.8701 29.1025" fill="#0D9361"/>
<path d="M26.5407 28.1167H24.2021C24.1506 28.1167 24.1089 28.1584 24.1089 28.2099V28.2215C24.1089 28.273 24.1506 28.3147 24.2021 28.3147H26.5407C26.5922 28.3147 26.6339 28.273 26.6339 28.2215V28.2099C26.6339 28.1584 26.5922 28.1167 26.5407 28.1167Z" fill="#46258F"/>
<path d="M24.5979 28.156H24.5886C24.5461 28.156 24.5117 28.1904 24.5117 28.2329V29.0675C24.5117 29.11 24.5461 29.1444 24.5886 29.1444H24.5979C24.6404 29.1444 24.6748 29.11 24.6748 29.0675V28.2329C24.6748 28.1904 24.6404 28.156 24.5979 28.156Z" fill="#46258F"/>
<path d="M25.1223 28.156H25.113C25.0705 28.156 25.0361 28.1904 25.0361 28.2329V29.0675C25.0361 29.11 25.0705 29.1444 25.113 29.1444H25.1223C25.1648 29.1444 25.1992 29.11 25.1992 29.0675V28.2329C25.1992 28.1904 25.1648 28.156 25.1223 28.156Z" fill="#46258F"/>
<path d="M25.6648 28.156H25.6555C25.613 28.156 25.5786 28.1904 25.5786 28.2329V29.0675C25.5786 29.11 25.613 29.1444 25.6555 29.1444H25.6648C25.7072 29.1444 25.7417 29.11 25.7417 29.0675V28.2329C25.7417 28.1904 25.7072 28.156 25.6648 28.156Z" fill="#46258F"/>
<path d="M26.1902 28.156H26.1809C26.1384 28.156 26.104 28.1904 26.104 28.2329V29.0675C26.104 29.11 26.1384 29.1444 26.1809 29.1444H26.1902C26.2326 29.1444 26.2671 29.11 26.2671 29.0675V28.2329C26.2671 28.1904 26.2326 28.156 26.1902 28.156Z" fill="#46258F"/>
<path d="M36.4258 29.0781H24.1484V29.3579H36.4258V29.0781Z" fill="#46258F"/>
<circle cx="9.0893" cy="10.0137" r="9.0893" fill="#5E23DC"/>
<path d="M8.5449 13.3762C8.47157 13.3762 8.41157 13.3529 8.3649 13.3062C8.3249 13.2596 8.3049 13.2029 8.3049 13.1362V7.95622L6.7849 9.12622C6.7249 9.16622 6.6649 9.18289 6.6049 9.17622C6.5449 9.16289 6.49157 9.12622 6.4449 9.06622L6.0249 8.52622C5.9849 8.46622 5.96824 8.40289 5.9749 8.33622C5.98824 8.26955 6.0249 8.21622 6.0849 8.17622L8.3249 6.44622C8.3649 6.41289 8.4049 6.39289 8.4449 6.38622C8.4849 6.37955 8.52824 6.37622 8.5749 6.37622H9.4549C9.52157 6.37622 9.57824 6.39955 9.6249 6.44622C9.67157 6.49289 9.6949 6.54955 9.6949 6.61622V13.1362C9.6949 13.2029 9.67157 13.2596 9.6249 13.3062C9.57824 13.3529 9.52157 13.3762 9.4549 13.3762H8.5449Z" fill="white"/>
</svg>