<svg width="60" height="59" viewBox="0 0 60 59" fill="none" xmlns="http://www.w3.org/2000/svg">
<circle cx="31.1113" cy="29.5428" r="28.5658" fill="white"/>
<path fill-rule="evenodd" clip-rule="evenodd" d="M56.6326 20.6206C60.2149 30.5034 57.8763 41.4931 50.5524 49.1992C43.2286 56.904 32.1127 60.0695 21.6486 57.4283C6.76862 52.8293 -1.78295 37.7436 2.19885 23.1158C6.18064 8.48802 21.2995 -0.55198 36.587 2.55515C40.294 3.50282 43.7675 5.15924 46.8029 7.42754" fill="white"/>
<path d="M56.6326 20.6206C60.2149 30.5034 57.8763 41.4931 50.5524 49.1992C43.2286 56.904 32.1127 60.0695 21.6486 57.4283C6.76862 52.8293 -1.78295 37.7436 2.19885 23.1158C6.18064 8.48802 21.2995 -0.55198 36.587 2.55515C40.294 3.50282 43.7675 5.15924 46.8029 7.42754" stroke="#8448FB" stroke-width="1.121" stroke-linecap="round" stroke-linejoin="round"/>
<circle cx="9.0893" cy="9.63776" r="9.0893" fill="#5E23DC"/>
<path d="M6.4649 13C6.39824 13 6.34157 12.9767 6.2949 12.93C6.24824 12.8833 6.2249 12.8267 6.2249 12.76V12.25C6.2249 12.19 6.23824 12.12 6.2649 12.04C6.29824 11.9533 6.36824 11.8667 6.4749 11.78L8.0549 10.21C8.4949 9.86333 8.84824 9.57 9.1149 9.33C9.38824 9.08333 9.5849 8.86 9.7049 8.66C9.83157 8.45333 9.8949 8.25 9.8949 8.05C9.8949 7.75 9.81157 7.50667 9.6449 7.32C9.4849 7.13333 9.22824 7.04 8.8749 7.04C8.64157 7.04 8.4449 7.09 8.2849 7.19C8.1249 7.28333 7.99824 7.41 7.9049 7.57C7.81824 7.73 7.75824 7.90667 7.7249 8.1C7.71157 8.18667 7.6749 8.24667 7.6149 8.28C7.5549 8.31333 7.4949 8.33 7.4349 8.33H6.5449C6.4849 8.33 6.4349 8.31 6.3949 8.27C6.3549 8.23 6.3349 8.18333 6.3349 8.13C6.34157 7.84333 6.40157 7.56667 6.5149 7.3C6.62824 7.02667 6.79157 6.78667 7.0049 6.58C7.2249 6.36667 7.49157 6.19667 7.8049 6.07C8.11824 5.94333 8.47157 5.88 8.8649 5.88C9.41824 5.88 9.8749 5.97333 10.2349 6.16C10.6016 6.34667 10.8749 6.6 11.0549 6.92C11.2416 7.24 11.3349 7.6 11.3349 8C11.3349 8.31333 11.2749 8.60333 11.1549 8.87C11.0349 9.13 10.8616 9.38333 10.6349 9.63C10.4082 9.87 10.1349 10.1167 9.8149 10.37L8.3949 11.81H11.2449C11.3182 11.81 11.3749 11.8333 11.4149 11.88C11.4616 11.92 11.4849 11.9767 11.4849 12.05V12.76C11.4849 12.8267 11.4616 12.8833 11.4149 12.93C11.3749 12.9767 11.3182 13 11.2449 13H6.4649Z" fill="white"/>
<path d="M16.8374 37.9516V27.3289L22.7564 21.2224L44.7753 28.9223V38.2156L16.8374 37.9484V37.9516Z" fill="#A99CFE"/>
<path d="M22.1187 38.2743V27.2801L25.0261 25.5074L27.9823 27.2801V38.2743H22.1187Z" fill="#46258F"/>
<path d="M22.646 37.9874V27.772L25.0292 26.3122L27.4515 27.772V37.9874H22.646Z" fill="#8C7DEA"/>
<path d="M22.9844 38.0331V27.9903L25.029 26.7912L27.1127 28.0197V38.0331H22.9844Z" fill="#46258F"/>
<path d="M26.6147 32.5099H26.2012V33.5592H26.6147V32.5099Z" fill="#8C7DEA"/>
<path d="M35.1646 33.7286V28.5248H30.6227V33.7286H35.1646Z" fill="#46258F"/>
<path d="M34.8257 33.3736V28.8801H30.9643V33.3736H34.8257Z" fill="#D6CFFF"/>
<path d="M30.2119 33.7323V34.3282H35.5778V33.7323H30.2119Z" fill="#46258F"/>
<g opacity="0.48">
<mask id="mask0_212_1018" style="mask-type:luminance" maskUnits="userSpaceOnUse" x="30" y="28" width="5" height="6">
<path d="M34.8267 33.3735V28.88H30.9653V33.3735H34.8267Z" fill="white"/>
</mask>
<g mask="url(#mask0_212_1018)">
<path d="M35.7969 26.8518L28.3936 31.6196L29.5687 33.4474L36.972 28.6795L35.7969 26.8518Z" fill="white"/>
<path d="M37.899 28.9562L30.4956 33.7241L31.2267 34.8613L38.6301 30.0934L37.899 28.9562Z" fill="white"/>
</g>
</g>
<path d="M32.7459 33.3995H33.0454V28.8539H32.7459V33.3995Z" fill="#46258F"/>
<path d="M30.6226 30.9754V31.275H35.1646V30.9754H30.6226Z" fill="#46258F"/>
<path opacity="0.52" d="M16.8377 27.3289V29.346C19.1493 27.3061 23.9516 22.9886 23.9516 22.9886L44.7756 30.7732V28.9224L22.7535 21.2192L16.8345 27.3257L16.8377 27.3289Z" fill="white"/>
<path d="M45.2478 29.7305L24.4628 21.7666C24.1438 21.6428 23.7824 21.721 23.5415 21.9622L16.1476 28.4661C15.809 28.805 15.262 28.805 14.9234 28.4661C14.5848 28.1273 14.5848 27.5798 14.9234 27.2409L23.1117 19.9451C23.3526 19.704 23.714 19.6258 24.0331 19.7496L45.8664 28.1142C46.3124 28.2869 46.5371 28.7855 46.3645 29.2352C46.192 29.6816 45.6938 29.9064 45.2445 29.7337L45.2478 29.7305Z" fill="#5E40E0"/>
<path d="M31.7944 37.7563C31.9702 37.0296 32.7712 36.5604 33.4288 36.7983C33.6372 36.5213 33.8521 36.2345 34.1321 36.0488C34.4153 35.8631 34.7832 35.7914 35.0763 35.9576C35.1772 36.0162 35.2684 36.1009 35.3758 36.14C35.4735 36.1759 35.5809 36.1726 35.6818 36.1889C36.2842 36.2964 36.5316 37.0752 36.6586 37.7204" fill="#25BA82"/>
<path d="M48.4314 37.691C48.5226 37.2511 48.3858 36.7656 48.0863 36.4561C47.7868 36.1465 47.3309 36.0227 46.9305 36.1465C46.8491 36.1726 46.7677 36.2051 46.683 36.1921C46.53 36.1693 46.4389 36.0031 46.3575 35.8597C46.0189 35.2634 45.4686 34.7747 44.8305 34.6867C44.1891 34.5987 43.4826 34.9962 43.3003 35.6675C42.7142 35.2504 41.8026 35.573 41.5584 36.2866C40.7282 36.1041 39.8231 36.7852 39.6929 37.6943" fill="#25BA82"/>
<path d="M41.2005 37.6845C40.9563 36.8797 39.9861 36.4496 39.2926 36.8373C39.1103 36.4561 38.8401 36.0976 38.4689 35.9412C38.0978 35.7848 37.6192 35.8891 37.4075 36.2541C37.3717 36.316 37.3424 36.3844 37.2903 36.43C37.2024 36.505 37.0754 36.4854 36.9647 36.4854C36.3624 36.4887 35.9652 37.1404 35.6787 37.7139" fill="#0D9361"/>
<path d="M20.7804 34.9571H14.2424C14.0986 34.9571 13.9819 35.0737 13.9819 35.2176V35.2501C13.9819 35.394 14.0986 35.5106 14.2424 35.5106H20.7804C20.9243 35.5106 21.0409 35.394 21.0409 35.2501V35.2176C21.0409 35.0737 20.9243 34.9571 20.7804 34.9571Z" fill="#46258F"/>
<path d="M15.3493 35.0679H15.3233C15.2046 35.0679 15.1084 35.1642 15.1084 35.283V37.6161C15.1084 37.7349 15.2046 37.8312 15.3233 37.8312H15.3493C15.468 37.8312 15.5642 37.7349 15.5642 37.6161V35.283C15.5642 35.1642 15.468 35.0679 15.3493 35.0679Z" fill="#46258F"/>
<path d="M16.8147 35.0679H16.7886C16.6699 35.0679 16.5737 35.1642 16.5737 35.283V37.6161C16.5737 37.7349 16.6699 37.8312 16.7886 37.8312H16.8147C16.9333 37.8312 17.0295 37.7349 17.0295 37.6161V35.283C17.0295 35.1642 16.9333 35.0679 16.8147 35.0679Z" fill="#46258F"/>
<path d="M18.3317 35.0679H18.3057C18.187 35.0679 18.0908 35.1642 18.0908 35.283V37.6161C18.0908 37.7349 18.187 37.8312 18.3057 37.8312H18.3317C18.4504 37.8312 18.5466 37.7349 18.5466 37.6161V35.283C18.5466 35.1642 18.4504 35.0679 18.3317 35.0679Z" fill="#46258F"/>
<path d="M19.8005 35.0679H19.7745C19.6558 35.0679 19.5596 35.1642 19.5596 35.283V37.6161C19.5596 37.7349 19.6558 37.8312 19.7745 37.8312H19.8005C19.9192 37.8312 20.0154 37.7349 20.0154 37.6161V35.283C20.0154 35.1642 19.9192 35.0679 19.8005 35.0679Z" fill="#46258F"/>
<path d="M48.4153 37.6453H14.0928V38.4274H48.4153V37.6453Z" fill="#46258F"/>
<path d="M25.7248 37.472L27.396 35.9965L33.3948 42.8541L31.7236 44.3296L25.7248 37.472Z" fill="#5E40E0"/>
<path d="M25.7248 37.4723L27.396 35.9968L28.5454 37.3107L26.8742 38.7862L25.7248 37.4723Z" fill="#46258F"/>
<path d="M28.8368 41.9823L32.9124 46.6408C33.545 47.3641 34.6417 47.4357 35.3609 46.7995C36.0808 46.164 36.1514 45.0622 35.5189 44.3389L31.4432 39.6805L28.8368 41.9823Z" fill="#F0B656"/>
<path style="mix-blend-mode:soft-light" d="M15.6436 24.102C19.0329 21.1091 24.1954 21.4434 27.1744 24.8484C30.1534 28.2534 29.8207 33.44 26.4314 36.4328C23.0421 39.4256 17.8796 39.0914 14.9006 35.6863C11.9216 32.2813 12.2543 27.0948 15.6436 24.102Z" fill="url(#paint0_linear_212_1018)"/>
<path d="M14.8209 23.1624C18.7268 19.7132 24.6763 20.0987 28.109 24.0226C31.5423 27.9466 31.1585 33.9238 27.2527 37.3731C23.3469 40.8223 17.3973 40.4368 13.964 36.5129C10.5307 32.5889 10.9144 26.6117 14.8203 23.1624H14.8209ZM26.0673 36.0164C29.228 33.2258 29.5376 28.389 26.76 25.2136C23.9823 22.0382 19.1678 21.7271 16.0071 24.5177C12.8464 27.3083 12.5367 32.1451 15.3144 35.3205C18.0921 38.4959 22.9066 38.807 26.0673 36.0164Z" fill="#5E40E0"/>
<path d="M15.3726 23.7938C18.9317 20.6507 24.3529 21.0018 27.4815 24.5768C30.61 28.1524 30.2605 33.5988 26.7014 36.7411C23.1423 39.8842 17.7211 39.5331 14.5933 35.9575C11.4647 32.3818 11.8142 26.9355 15.3733 23.7931L15.3726 23.7938ZM26.2569 36.2342C29.5364 33.3382 29.8586 28.3188 26.9754 25.0241C24.0929 21.7293 19.0967 21.4056 15.8171 24.3022C12.5376 27.1981 12.2154 32.2175 15.0986 35.5123C17.9811 38.8071 22.9773 39.1308 26.2569 36.2342Z" fill="#46258F"/>
<path d="M16.1426 31.2701L14.0205 31.7623C14.0205 31.7623 14.9033 35.4609 18.0864 36.6897C16.3439 33.9006 16.1426 31.2701 16.1426 31.2701Z" fill="white"/>
<path d="M14.0055 31.247L15.9927 30.7758L15.9081 29.1165L13.9901 29.033C13.9901 29.033 13.6903 30.1614 14.0055 31.2477V31.247Z" fill="white"/>
<path d="M31.8829 45.4639L32.9124 46.6408C33.545 47.3641 34.6417 47.4357 35.3609 46.7995C36.0808 46.164 36.1514 45.0623 35.5189 44.339L34.5529 43.2351C35.0107 44.1964 35.3574 45.3972 34.613 45.9513C33.8358 46.5292 32.702 46.0074 31.8829 45.4639Z" fill="#F0983E"/>
<defs>
<linearGradient id="paint0_linear_212_1018" x1="19.5019" y1="21.8514" x2="22.5979" y2="38.6593" gradientUnits="userSpaceOnUse">
<stop stop-color="white"/>
<stop offset="1" stop-color="white" stop-opacity="0"/>
</linearGradient>
</defs>
</svg>
