<svg width="60" height="60" viewBox="0 0 60 60" fill="none" xmlns="http://www.w3.org/2000/svg">
<circle cx="31.1142" cy="29.6694" r="28.5658" fill="white"/>
<path fill-rule="evenodd" clip-rule="evenodd" d="M56.6356 20.7473C60.2179 30.6301 57.8792 41.6198 50.5554 49.3259C43.2315 57.0307 32.1157 60.1962 21.6515 57.555C6.77155 52.956 -1.78002 37.8703 2.20178 23.2425C6.18357 8.61473 21.3024 -0.425271 36.5899 2.68186C40.2969 3.62952 43.7704 5.28595 46.8059 7.55425" fill="white"/>
<path d="M56.6356 20.7473C60.2179 30.6301 57.8792 41.6198 50.5554 49.3259C43.2315 57.0307 32.1157 60.1962 21.6515 57.555C6.77155 52.956 -1.78002 37.8703 2.20178 23.2425C6.18357 8.61473 21.3024 -0.425271 36.5899 2.68186C40.2969 3.62952 43.7704 5.28595 46.8059 7.55425" stroke="#8448FB" stroke-width="1.121" stroke-linecap="round" stroke-linejoin="round"/>
<path d="M14.3395 24.6484C12.4744 24.6484 10.9624 26.1616 10.9624 28.0281H17.7167C17.7167 26.1616 16.2047 24.6484 14.3395 24.6484Z" fill="#FEE662"/>
<path d="M18.945 25.877C17.7581 25.877 16.7959 26.8399 16.7959 28.0277H21.0941C21.0941 26.8399 20.1319 25.877 18.945 25.877Z" fill="#FEE662"/>
<path d="M16.1147 42.3086V31.2101L22.3041 24.8301L45.3285 32.8748V42.5844L16.1147 42.3052V42.3086Z" fill="#A99CFE"/>
<path d="M21.6362 42.6454V31.1587L24.6764 29.3066L27.7677 31.1587V42.6454H21.6362Z" fill="#46258F"/>
<path d="M22.188 42.3457V31.6727L24.6801 30.1475L27.213 31.6727V42.3457H22.188Z" fill="#8C7DEA"/>
<path d="M22.542 42.3939V31.9013L24.68 30.6484L26.8589 31.9319V42.3939H22.542Z" fill="#46258F"/>
<path d="M26.3376 36.623H25.9053V37.7193H26.3376V36.623Z" fill="#8C7DEA"/>
<path d="M35.2783 37.8959V32.459H30.5291V37.8959H35.2783Z" fill="#46258F"/>
<path d="M34.9243 37.5248V32.8301H30.8866V37.5248H34.9243Z" fill="#D6CFFF"/>
<path d="M30.1001 37.8994V38.5225H35.7107V37.8994H30.1001Z" fill="#46258F"/>
<g opacity="0.48">
<mask id="mask0_1181_72" style="mask-type:luminance" maskUnits="userSpaceOnUse" x="30" y="32" width="5" height="6">
<path d="M34.9248 37.5248V32.8301H30.8871V37.5248H34.9248Z" fill="white"/>
</mask>
<g mask="url(#mask0_1181_72)">
<path d="M35.9397 30.711L28.1982 35.6924L29.427 37.602L37.1685 32.6206L35.9397 30.711Z" fill="white"/>
<path d="M38.1375 32.9102L30.396 37.8916L31.1605 39.0797L38.902 34.0983L38.1375 32.9102Z" fill="white"/>
</g>
</g>
<path d="M32.7488 37.5518H33.062V32.8025H32.7488V37.5518Z" fill="#46258F"/>
<path d="M30.5288 35.0188V35.332H35.278V35.0188H30.5288Z" fill="#46258F"/>
<path opacity="0.52" d="M16.1142 31.2096V33.3169C18.5314 31.1857 23.553 26.6748 23.553 26.6748L45.328 34.8081V32.8743L22.3002 24.8262L16.1108 31.2061L16.1142 31.2096Z" fill="white"/>
<path d="M45.8215 33.7191L24.0873 25.3985C23.7537 25.2692 23.3758 25.3509 23.1239 25.6028L15.3923 32.3981C15.0382 32.7522 14.4663 32.7522 14.1122 32.3981C13.7582 32.0441 13.7582 31.4721 14.1122 31.118L22.6745 23.4954C22.9264 23.2435 23.3043 23.1618 23.6379 23.2912L46.4683 32.0304C46.9347 32.2109 47.1696 32.7318 46.9892 33.2016C46.8088 33.668 46.2879 33.9029 45.8181 33.7225L45.8215 33.7191Z" fill="#5E40E0"/>
<path d="M31.7544 42.1046C31.9382 41.3454 32.7757 40.8552 33.4634 41.1037C33.6813 40.8143 33.906 40.5147 34.1988 40.3207C34.495 40.1266 34.8797 40.0517 35.1861 40.2253C35.2916 40.2866 35.387 40.3751 35.4993 40.416C35.6014 40.4534 35.7138 40.45 35.8193 40.4671C36.4492 40.5794 36.7079 41.3931 36.8407 42.0672" fill="#25BA82"/>
<path d="M49.1513 42.0363C49.2466 41.5767 49.1036 41.0695 48.7904 40.7461C48.4772 40.4226 48.0006 40.2933 47.5818 40.4226C47.4967 40.4499 47.4116 40.4839 47.3231 40.4703C47.1631 40.4465 47.0677 40.2728 46.9826 40.123C46.6286 39.5 46.0532 38.9893 45.3859 38.8974C44.7152 38.8055 43.9765 39.2209 43.7858 39.9222C43.173 39.4864 42.2198 39.8234 41.9644 40.569C41.0963 40.3784 40.1499 41.0899 40.0137 42.0398" fill="#25BA82"/>
<path d="M41.5904 42.0297C41.3351 41.1888 40.3205 40.7394 39.5954 41.1445C39.4047 40.7462 39.1221 40.3717 38.734 40.2083C38.3459 40.0449 37.8455 40.1538 37.6242 40.5351C37.5867 40.5998 37.5561 40.6713 37.5016 40.719C37.4097 40.7973 37.2769 40.7769 37.1612 40.7769C36.5313 40.7803 36.116 41.4611 35.8164 42.0603" fill="#0D9361"/>
<path d="M20.237 39.1797H13.4008C13.2504 39.1797 13.1284 39.3016 13.1284 39.452V39.4861C13.1284 39.6365 13.2504 39.7584 13.4008 39.7584H20.237C20.3874 39.7584 20.5093 39.6365 20.5093 39.4861V39.452C20.5093 39.3016 20.3874 39.1797 20.237 39.1797Z" fill="#46258F"/>
<path d="M14.5586 39.2959H14.5313C14.4072 39.2959 14.3066 39.3965 14.3066 39.5206V41.9582C14.3066 42.0823 14.4072 42.1829 14.5313 42.1829H14.5586C14.6827 42.1829 14.7833 42.0823 14.7833 41.9582V39.5206C14.7833 39.3965 14.6827 39.2959 14.5586 39.2959Z" fill="#46258F"/>
<path d="M16.0903 39.2959H16.0631C15.939 39.2959 15.8384 39.3965 15.8384 39.5206V41.9582C15.8384 42.0823 15.939 42.1829 16.0631 42.1829H16.0903C16.2144 42.1829 16.315 42.0823 16.315 41.9582V39.5206C16.315 39.3965 16.2144 39.2959 16.0903 39.2959Z" fill="#46258F"/>
<path d="M17.6767 39.2959H17.6495C17.5254 39.2959 17.4248 39.3965 17.4248 39.5206V41.9582C17.4248 42.0823 17.5254 42.1829 17.6495 42.1829H17.6767C17.8008 42.1829 17.9014 42.0823 17.9014 41.9582V39.5206C17.9014 39.3965 17.8008 39.2959 17.6767 39.2959Z" fill="#46258F"/>
<path d="M19.2124 39.2959H19.1851C19.061 39.2959 18.9604 39.3965 18.9604 39.5206V41.9582C18.9604 42.0823 19.061 42.1829 19.1851 42.1829H19.2124C19.3365 42.1829 19.4371 42.0823 19.4371 41.9582V39.5206C19.4371 39.3965 19.3365 39.2959 19.2124 39.2959Z" fill="#46258F"/>
<path d="M49.1346 41.9883H13.2446V42.8054H49.1346V41.9883Z" fill="#46258F"/>
<mask id="mask1_1181_72" style="mask-type:luminance" maskUnits="userSpaceOnUse" x="48" y="31" width="8" height="8">
<rect x="48.3804" y="31.7305" width="7.17152" height="7.17152" fill="white"/>
</mask>
<g mask="url(#mask1_1181_72)">
<path fill-rule="evenodd" clip-rule="evenodd" d="M55.2759 35.6735C55.2759 37.4516 53.8088 38.893 51.999 38.893C50.1892 38.893 48.7222 37.4516 48.7222 35.6735C48.7222 33.8955 50.1892 32.4541 51.999 32.4541C53.8088 32.4541 55.2759 33.8955 55.2759 35.6735Z" fill="#8C7AED"/>
<mask id="mask2_1181_72" style="mask-type:luminance" maskUnits="userSpaceOnUse" x="48" y="33" width="7" height="6">
<path fill-rule="evenodd" clip-rule="evenodd" d="M48.7848 35.0446C48.7437 35.2482 48.7222 35.4588 48.7222 35.6743C48.7222 36.2023 48.8516 36.7006 49.0808 37.1403C49.6879 36.5361 50.2422 35.9843 50.2422 35.9843C50.3791 35.8329 50.4305 35.732 50.4305 35.6984C50.4476 35.732 50.4819 35.8498 50.6359 35.9843C50.6359 35.9843 52.9499 38.2878 53.2863 38.6358C53.8357 38.405 54.308 38.0308 54.6543 37.5612L50.4305 33.4277" fill="white"/>
</mask>
<g mask="url(#mask2_1181_72)">
<path opacity="0.1" fill-rule="evenodd" clip-rule="evenodd" d="M55.2495 35.7165C55.2495 37.4946 53.7824 38.936 51.9727 38.936C50.1629 38.936 48.6958 37.4946 48.6958 35.7165C48.6958 33.9385 50.1629 32.4971 51.9727 32.4971C53.7824 32.4971 55.2495 33.9385 55.2495 35.7165Z" fill="white"/>
</g>
<mask id="mask3_1181_72" style="mask-type:luminance" maskUnits="userSpaceOnUse" x="48" y="32" width="8" height="7">
<path fill-rule="evenodd" clip-rule="evenodd" d="M52.0234 32.4062C50.2013 32.4062 48.7241 33.8575 48.7241 35.6477C48.7241 37.4379 50.2013 38.8892 52.0234 38.8892C53.8455 38.8892 55.3227 37.4379 55.3227 35.6477C55.3227 33.8575 53.8455 32.4062 52.0234 32.4062Z" fill="white"/>
</mask>
<g mask="url(#mask3_1181_72)">
<path fill-rule="evenodd" clip-rule="evenodd" d="M56.0099 40.9192L54.6246 41.0699L53.3447 36.3925L54.3614 36.1211L56.0099 40.9192Z" fill="#5E40E0"/>
<path fill-rule="evenodd" clip-rule="evenodd" d="M52.6714 41.4306L50.1259 40.7012L49.5459 35.0557L54.3596 36.1208L52.6714 41.4306Z" fill="#5E40E0"/>
<path fill-rule="evenodd" clip-rule="evenodd" d="M47.0717 39.7865L45.9272 38.7117L49.5284 35.0547L50.3042 36.1295L47.0717 39.7865Z" fill="#5E40E0"/>
<path fill-rule="evenodd" clip-rule="evenodd" d="M51.0127 35.3613L53.2007 35.8061L51.8609 37.3066" fill="white"/>
</g>
<mask id="mask4_1181_72" style="mask-type:luminance" maskUnits="userSpaceOnUse" x="50" y="31" width="4" height="5">
<path fill-rule="evenodd" clip-rule="evenodd" d="M50.5601 31.7422H53.4693V35.0195H50.5601V31.7422Z" fill="white"/>
</mask>
<g mask="url(#mask4_1181_72)">
<path fill-rule="evenodd" clip-rule="evenodd" d="M53.3926 32.9923C53.6494 33.8713 53.2406 34.7578 52.4796 34.9724C51.7186 35.1869 50.8935 34.6483 50.6368 33.7694C50.38 32.8904 50.7888 32.0039 51.5498 31.7893C52.3108 31.5747 53.1358 32.1133 53.3926 32.9923Z" fill="white"/>
</g>
<mask id="mask5_1181_72" style="mask-type:luminance" maskUnits="userSpaceOnUse" x="50" y="31" width="4" height="3">
<path fill-rule="evenodd" clip-rule="evenodd" d="M50.5601 31.7422H53.4677V33.6573H50.5601V31.7422Z" fill="white"/>
</mask>
<g mask="url(#mask5_1181_72)">
<path fill-rule="evenodd" clip-rule="evenodd" d="M50.633 33.4879C50.633 33.4879 51.4468 33.6803 51.3867 32.7731C51.3867 32.7731 51.3904 34.1998 53.4415 33.4286L53.4677 33.4467C53.4616 33.2974 53.4371 33.1447 53.3926 32.9923C53.1358 32.1133 52.3107 31.5747 51.5497 31.7893C50.8491 31.9869 50.447 32.7541 50.5881 33.5606L50.633 33.4879Z" fill="#5E40E0"/>
</g>
</g>
<mask id="mask6_1181_72" style="mask-type:luminance" maskUnits="userSpaceOnUse" x="37" y="18" width="12" height="11">
<rect x="37.8325" y="18.3721" width="10.2198" height="10.2198" fill="white"/>
</mask>
<g mask="url(#mask6_1181_72)">
<path fill-rule="evenodd" clip-rule="evenodd" d="M47.6592 23.9922C47.6592 26.526 45.5685 28.5801 42.9895 28.5801C40.4105 28.5801 38.3198 26.526 38.3198 23.9922C38.3198 21.4584 40.4105 19.4043 42.9895 19.4043C45.5685 19.4043 47.6592 21.4584 47.6592 23.9922Z" fill="#8C7AED"/>
<mask id="mask7_1181_72" style="mask-type:luminance" maskUnits="userSpaceOnUse" x="38" y="20" width="9" height="9">
<path fill-rule="evenodd" clip-rule="evenodd" d="M38.4091 23.0951C38.3505 23.3853 38.3198 23.6853 38.3198 23.9925C38.3198 24.7448 38.5042 25.455 38.8309 26.0816C39.696 25.2206 40.4859 24.4343 40.4859 24.4343C40.6811 24.2186 40.7543 24.0747 40.7543 24.0268C40.7787 24.0747 40.8275 24.2425 41.047 24.4343C41.047 24.4343 44.3445 27.7169 44.8239 28.2128C45.6069 27.8839 46.2799 27.3506 46.7735 26.6815L40.7543 20.791" fill="white"/>
</mask>
<g mask="url(#mask7_1181_72)">
<path opacity="0.1" fill-rule="evenodd" clip-rule="evenodd" d="M47.6216 24.0527C47.6216 26.5865 45.5309 28.6406 42.9519 28.6406C40.3729 28.6406 38.2822 26.5865 38.2822 24.0527C38.2822 21.5189 40.3729 19.4648 42.9519 19.4648C45.5309 19.4648 47.6216 21.5189 47.6216 24.0527Z" fill="white"/>
</g>
<mask id="mask8_1181_72" style="mask-type:luminance" maskUnits="userSpaceOnUse" x="38" y="19" width="10" height="10">
<path fill-rule="evenodd" clip-rule="evenodd" d="M43.0234 19.3359C40.4268 19.3359 38.3218 21.404 38.3218 23.9552C38.3218 26.5063 40.4268 28.5744 43.0234 28.5744C45.62 28.5744 47.725 26.5063 47.725 23.9552C47.725 21.404 45.62 19.3359 43.0234 19.3359Z" fill="white"/>
</mask>
<g mask="url(#mask8_1181_72)">
<path fill-rule="evenodd" clip-rule="evenodd" d="M48.7047 31.4675L46.7306 31.6822L44.9067 25.0166L46.3555 24.6299L48.7047 31.4675Z" fill="#5E40E0"/>
<path fill-rule="evenodd" clip-rule="evenodd" d="M43.9467 32.1959L40.3192 31.1565L39.4927 23.1113L46.3524 24.6292L43.9467 32.1959Z" fill="#5E40E0"/>
<path fill-rule="evenodd" clip-rule="evenodd" d="M35.9673 29.8535L34.3364 28.3218L39.4682 23.1104L40.5738 24.642L35.9673 29.8535Z" fill="#5E40E0"/>
<path fill-rule="evenodd" clip-rule="evenodd" d="M41.5835 23.5469L44.7015 24.1807L42.7923 26.319" fill="white"/>
</g>
<mask id="mask9_1181_72" style="mask-type:luminance" maskUnits="userSpaceOnUse" x="40" y="18" width="6" height="6">
<path fill-rule="evenodd" clip-rule="evenodd" d="M40.9385 18.3896H45.0843V23.0599H40.9385V18.3896Z" fill="white"/>
</mask>
<g mask="url(#mask9_1181_72)">
<path fill-rule="evenodd" clip-rule="evenodd" d="M44.975 20.1711C45.3409 21.4237 44.7584 22.687 43.6739 22.9928C42.5894 23.2986 41.4137 22.5311 41.0478 21.2785C40.6819 20.0259 41.2644 18.7626 42.3489 18.4568C43.4333 18.151 44.6091 18.9185 44.975 20.1711Z" fill="white"/>
</g>
<mask id="mask10_1181_72" style="mask-type:luminance" maskUnits="userSpaceOnUse" x="40" y="18" width="6" height="4">
<path fill-rule="evenodd" clip-rule="evenodd" d="M40.9385 18.3896H45.082V21.1188H40.9385V18.3896Z" fill="white"/>
</mask>
<g mask="url(#mask10_1181_72)">
<path fill-rule="evenodd" clip-rule="evenodd" d="M41.0425 20.8774C41.0425 20.8774 42.2022 21.1516 42.1164 19.8588C42.1164 19.8588 42.1218 21.8918 45.0447 20.7929L45.082 20.8186C45.0733 20.6058 45.0384 20.3883 44.9749 20.1711C44.609 18.9185 43.4333 18.151 42.3488 18.4568C41.3503 18.7383 40.7774 19.8317 40.9785 20.9809L41.0425 20.8774Z" fill="#5E40E0"/>
</g>
</g>
<mask id="mask11_1181_72" style="mask-type:luminance" maskUnits="userSpaceOnUse" x="6" y="31" width="7" height="8">
<rect x="6.28027" y="31.8242" width="6.48218" height="6.48218" fill="white"/>
</mask>
<g mask="url(#mask11_1181_72)">
<path fill-rule="evenodd" clip-rule="evenodd" d="M12.5126 35.3885C12.5126 36.9956 11.1865 38.2985 9.55075 38.2985C7.91493 38.2985 6.58887 36.9956 6.58887 35.3885C6.58887 33.7814 7.91493 32.4785 9.55075 32.4785C11.1865 32.4785 12.5126 33.7814 12.5126 35.3885Z" fill="#8C7AED"/>
<mask id="mask12_1181_72" style="mask-type:luminance" maskUnits="userSpaceOnUse" x="6" y="33" width="6" height="6">
<path fill-rule="evenodd" clip-rule="evenodd" d="M6.6455 34.8198C6.60834 35.0039 6.58887 35.1942 6.58887 35.389C6.58887 35.8662 6.70582 36.3167 6.91306 36.7141C7.46177 36.168 7.96277 35.6692 7.96277 35.6692C8.08657 35.5324 8.13299 35.4412 8.13299 35.4108C8.14847 35.4412 8.17941 35.5476 8.31867 35.6692C8.31867 35.6692 10.4102 37.7513 10.7143 38.0659C11.2109 37.8573 11.6378 37.519 11.9508 37.0946L8.13299 33.3584" fill="white"/>
</mask>
<g mask="url(#mask12_1181_72)">
<path opacity="0.1" fill-rule="evenodd" clip-rule="evenodd" d="M12.4892 35.4266C12.4892 37.0337 11.1631 38.3366 9.52731 38.3366C7.89149 38.3366 6.56543 37.0337 6.56543 35.4266C6.56543 33.8194 7.89149 32.5166 9.52731 32.5166C11.1631 32.5166 12.4892 33.8194 12.4892 35.4266Z" fill="white"/>
</g>
<mask id="mask13_1181_72" style="mask-type:luminance" maskUnits="userSpaceOnUse" x="6" y="32" width="7" height="7">
<path fill-rule="evenodd" clip-rule="evenodd" d="M9.57297 32.4355C7.92597 32.4355 6.59082 33.7473 6.59082 35.3654C6.59082 36.9836 7.92597 38.2953 9.57297 38.2953C11.2199 38.2953 12.5551 36.9836 12.5551 35.3654C12.5551 33.7473 11.2199 32.4355 9.57297 32.4355Z" fill="white"/>
</mask>
<g mask="url(#mask13_1181_72)">
<path fill-rule="evenodd" clip-rule="evenodd" d="M13.1761 40.1309L11.9239 40.2671L10.7671 36.0392L11.686 35.7939L13.1761 40.1309Z" fill="#5E40E0"/>
<path fill-rule="evenodd" clip-rule="evenodd" d="M10.1581 40.5922L7.85723 39.9329L7.33301 34.8301L11.684 35.7929L10.1581 40.5922Z" fill="#5E40E0"/>
<path fill-rule="evenodd" clip-rule="evenodd" d="M5.09694 39.1071L4.0625 38.1356L7.31749 34.8301L8.01871 35.8016L5.09694 39.1071Z" fill="#5E40E0"/>
<path fill-rule="evenodd" clip-rule="evenodd" d="M8.65918 35.1064L10.6369 35.5085L9.42589 36.8648" fill="white"/>
</g>
<mask id="mask14_1181_72" style="mask-type:luminance" maskUnits="userSpaceOnUse" x="8" y="31" width="3" height="4">
<path fill-rule="evenodd" clip-rule="evenodd" d="M8.25 31.835H10.8796V34.7972H8.25V31.835Z" fill="white"/>
</mask>
<g mask="url(#mask14_1181_72)">
<path fill-rule="evenodd" clip-rule="evenodd" d="M10.8103 32.9649C11.0424 33.7594 10.6729 34.5607 9.98502 34.7546C9.29717 34.9486 8.55143 34.4618 8.31934 33.6673C8.08726 32.8728 8.45672 32.0715 9.14457 31.8776C9.83243 31.6836 10.5782 32.1704 10.8103 32.9649Z" fill="white"/>
</g>
<mask id="mask15_1181_72" style="mask-type:luminance" maskUnits="userSpaceOnUse" x="8" y="31" width="3" height="3">
<path fill-rule="evenodd" clip-rule="evenodd" d="M8.25 31.835H10.8782V33.566H8.25V31.835Z" fill="white"/>
</mask>
<g mask="url(#mask15_1181_72)">
<path fill-rule="evenodd" clip-rule="evenodd" d="M8.31595 33.4129C8.31595 33.4129 9.05154 33.5868 8.99716 32.7668C8.99716 32.7668 9.00057 34.0563 10.8545 33.3593L10.8782 33.3756C10.8726 33.2406 10.8505 33.1027 10.8102 32.9649C10.5782 32.1704 9.8324 31.6836 9.14455 31.8776C8.51122 32.0561 8.14782 32.7496 8.27536 33.4786L8.31595 33.4129Z" fill="#5E40E0"/>
</g>
</g>
<mask id="mask16_1181_72" style="mask-type:luminance" maskUnits="userSpaceOnUse" x="28" y="18" width="6" height="6">
<rect x="28.6719" y="18.6094" width="4.69389" height="4.69389" fill="white"/>
</mask>
<g mask="url(#mask16_1181_72)">
<path fill-rule="evenodd" clip-rule="evenodd" d="M33.1855 21.1902C33.1855 22.354 32.2253 23.2974 31.0408 23.2974C29.8562 23.2974 28.896 22.354 28.896 21.1902C28.896 20.0264 29.8562 19.083 31.0408 19.083C32.2253 19.083 33.1855 20.0264 33.1855 21.1902Z" fill="#8C7AED"/>
<mask id="mask17_1181_72" style="mask-type:luminance" maskUnits="userSpaceOnUse" x="28" y="19" width="5" height="5">
<path fill-rule="evenodd" clip-rule="evenodd" d="M28.937 20.778C28.9101 20.9113 28.896 21.0491 28.896 21.1901C28.896 21.5357 28.9807 21.8619 29.1307 22.1497C29.5281 21.7542 29.8909 21.3931 29.8909 21.3931C29.9805 21.294 30.0141 21.2279 30.0141 21.2059C30.0253 21.2279 30.0477 21.305 30.1486 21.3931C30.1486 21.3931 31.6631 22.9008 31.8833 23.1285C32.2429 22.9774 32.552 22.7325 32.7787 22.4252L30.0141 19.7197" fill="white"/>
</mask>
<g mask="url(#mask17_1181_72)">
<path opacity="0.1" fill-rule="evenodd" clip-rule="evenodd" d="M33.1684 21.2185C33.1684 22.3823 32.2082 23.3257 31.0237 23.3257C29.8391 23.3257 28.8789 22.3823 28.8789 21.2185C28.8789 20.0547 29.8391 19.1113 31.0237 19.1113C32.2082 19.1113 33.1684 20.0547 33.1684 21.2185Z" fill="white"/>
</g>
<mask id="mask18_1181_72" style="mask-type:luminance" maskUnits="userSpaceOnUse" x="28" y="19" width="6" height="5">
<path fill-rule="evenodd" clip-rule="evenodd" d="M31.0564 19.0518C29.8638 19.0518 28.897 20.0016 28.897 21.1733C28.897 22.3451 29.8638 23.295 31.0564 23.295C32.249 23.295 33.2158 22.3451 33.2158 21.1733C33.2158 20.0016 32.249 19.0518 31.0564 19.0518Z" fill="white"/>
</mask>
<g mask="url(#mask18_1181_72)">
<path fill-rule="evenodd" clip-rule="evenodd" d="M33.6653 24.6239L32.7586 24.7225L31.9209 21.661L32.5863 21.4834L33.6653 24.6239Z" fill="#5E40E0"/>
<path fill-rule="evenodd" clip-rule="evenodd" d="M31.4808 24.9586L29.8147 24.4812L29.4351 20.7861L32.5857 21.4833L31.4808 24.9586Z" fill="#5E40E0"/>
<path fill-rule="evenodd" clip-rule="evenodd" d="M27.8155 23.8822L27.0664 23.1787L29.4234 20.7852L29.9312 21.4886L27.8155 23.8822Z" fill="#5E40E0"/>
<path fill-rule="evenodd" clip-rule="evenodd" d="M30.395 20.9863L31.8271 21.2774L30.9502 22.2596" fill="white"/>
</g>
<mask id="mask19_1181_72" style="mask-type:luminance" maskUnits="userSpaceOnUse" x="30" y="18" width="3" height="3">
<path fill-rule="evenodd" clip-rule="evenodd" d="M30.0991 18.6172H32.0033V20.7622H30.0991V18.6172Z" fill="white"/>
</mask>
<g mask="url(#mask19_1181_72)">
<path fill-rule="evenodd" clip-rule="evenodd" d="M31.9531 19.4354C32.1211 20.0107 31.8536 20.5909 31.3555 20.7314C30.8574 20.8718 30.3174 20.5193 30.1493 19.944C29.9813 19.3687 30.2488 18.7885 30.7469 18.648C31.245 18.5076 31.785 18.8601 31.9531 19.4354Z" fill="white"/>
</g>
<mask id="mask20_1181_72" style="mask-type:luminance" maskUnits="userSpaceOnUse" x="30" y="18" width="3" height="2">
<path fill-rule="evenodd" clip-rule="evenodd" d="M30.0991 18.6172H32.0022V19.8707H30.0991V18.6172Z" fill="white"/>
</mask>
<g mask="url(#mask20_1181_72)">
<path fill-rule="evenodd" clip-rule="evenodd" d="M30.1469 19.7598C30.1469 19.7598 30.6795 19.8857 30.6402 19.292C30.6402 19.292 30.6426 20.2257 31.9851 19.721L32.0022 19.7328C31.9982 19.6351 31.9822 19.5352 31.953 19.4354C31.785 18.8601 31.245 18.5076 30.7469 18.648C30.2883 18.7773 30.0251 19.2795 30.1175 19.8074L30.1469 19.7598Z" fill="#5E40E0"/>
</g>
</g>
<mask id="mask21_1181_72" style="mask-type:luminance" maskUnits="userSpaceOnUse" x="16" y="11" width="10" height="10">
<rect x="16.5122" y="11.8789" width="9.10558" height="9.10558" fill="white"/>
</mask>
<g mask="url(#mask21_1181_72)">
<path fill-rule="evenodd" clip-rule="evenodd" d="M25.267 16.8855C25.267 19.1431 23.4042 20.9732 21.1064 20.9732C18.8085 20.9732 16.9458 19.1431 16.9458 16.8855C16.9458 14.628 18.8085 12.7979 21.1064 12.7979C23.4042 12.7979 25.267 14.628 25.267 16.8855Z" fill="#8C7AED"/>
<mask id="mask22_1181_72" style="mask-type:luminance" maskUnits="userSpaceOnUse" x="16" y="14" width="9" height="7">
<path fill-rule="evenodd" clip-rule="evenodd" d="M17.0254 16.0861C16.9732 16.3447 16.9458 16.612 16.9458 16.8856C16.9458 17.556 17.1101 18.1887 17.4012 18.747C18.172 17.9799 18.8757 17.2793 18.8757 17.2793C19.0496 17.0871 19.1148 16.9589 19.1148 16.9162C19.1366 16.9589 19.18 17.1084 19.3757 17.2793C19.3757 17.2793 22.3137 20.204 22.7408 20.6458C23.4384 20.3528 24.0381 19.8777 24.4778 19.2814L19.1148 14.0332" fill="white"/>
</mask>
<g mask="url(#mask22_1181_72)">
<path opacity="0.1" fill-rule="evenodd" clip-rule="evenodd" d="M25.2342 16.9402C25.2342 19.1978 23.3715 21.0279 21.0737 21.0279C18.7758 21.0279 16.9131 19.1978 16.9131 16.9402C16.9131 14.6827 18.7758 12.8525 21.0737 12.8525C23.3715 12.8525 25.2342 14.6827 25.2342 16.9402Z" fill="white"/>
</g>
<mask id="mask23_1181_72" style="mask-type:luminance" maskUnits="userSpaceOnUse" x="16" y="12" width="10" height="9">
<path fill-rule="evenodd" clip-rule="evenodd" d="M21.1373 12.7373C18.8237 12.7373 16.9482 14.5799 16.9482 16.8529C16.9482 19.126 18.8237 20.9686 21.1373 20.9686C23.4508 20.9686 25.3263 19.126 25.3263 16.8529C25.3263 14.5799 23.4508 12.7373 21.1373 12.7373Z" fill="white"/>
</mask>
<g mask="url(#mask23_1181_72)">
<path fill-rule="evenodd" clip-rule="evenodd" d="M26.1993 23.5463L24.4404 23.7375L22.8154 17.7987L24.1063 17.4541L26.1993 23.5463Z" fill="#5E40E0"/>
<path fill-rule="evenodd" clip-rule="evenodd" d="M21.9601 24.1947L18.7281 23.2686L17.9917 16.1006L24.1036 17.453L21.9601 24.1947Z" fill="#5E40E0"/>
<path fill-rule="evenodd" clip-rule="evenodd" d="M14.8501 22.1086L13.397 20.7439L17.9693 16.1006L18.9543 17.4653L14.8501 22.1086Z" fill="#5E40E0"/>
<path fill-rule="evenodd" clip-rule="evenodd" d="M19.855 16.4893L22.6331 17.054L20.932 18.9592" fill="white"/>
</g>
<mask id="mask24_1181_72" style="mask-type:luminance" maskUnits="userSpaceOnUse" x="19" y="11" width="4" height="6">
<path fill-rule="evenodd" clip-rule="evenodd" d="M19.2798 11.8945H22.9736V16.0557H19.2798V11.8945Z" fill="white"/>
</mask>
<g mask="url(#mask24_1181_72)">
<path fill-rule="evenodd" clip-rule="evenodd" d="M22.8762 13.4818C23.2022 14.5978 22.6832 15.7234 21.717 15.9958C20.7508 16.2683 19.7032 15.5844 19.3772 14.4684C19.0512 13.3524 19.5702 12.2268 20.5364 11.9544C21.5026 11.6819 22.5502 12.3658 22.8762 13.4818Z" fill="white"/>
</g>
<mask id="mask25_1181_72" style="mask-type:luminance" maskUnits="userSpaceOnUse" x="19" y="11" width="4" height="4">
<path fill-rule="evenodd" clip-rule="evenodd" d="M19.2798 11.8945H22.9716V14.3261H19.2798V11.8945Z" fill="white"/>
</mask>
<g mask="url(#mask25_1181_72)">
<path fill-rule="evenodd" clip-rule="evenodd" d="M19.3724 14.1111C19.3724 14.1111 20.4057 14.3554 20.3293 13.2035C20.3293 13.2035 20.3341 15.0149 22.9383 14.0358L22.9716 14.0587C22.9638 13.8691 22.9327 13.6753 22.8762 13.4818C22.5502 12.3658 21.5026 11.6819 20.5364 11.9544C19.6467 12.2052 19.1363 13.1793 19.3154 14.2033L19.3724 14.1111Z" fill="#5E40E0"/>
</g>
</g>
<circle cx="9.09223" cy="9.76508" r="9.0893" fill="#5E23DC"/>
<path d="M6.46783 13.127C6.40117 13.127 6.3445 13.1036 6.29783 13.057C6.25117 13.0103 6.22783 12.9536 6.22783 12.887V12.377C6.22783 12.317 6.24117 12.247 6.26783 12.167C6.30117 12.0803 6.37117 11.9936 6.47783 11.907L8.05783 10.337C8.49783 9.99029 8.85117 9.69695 9.11783 9.45695C9.39117 9.21029 9.58783 8.98695 9.70783 8.78695C9.8345 8.58029 9.89783 8.37695 9.89783 8.17695C9.89783 7.87695 9.8145 7.63362 9.64783 7.44695C9.48783 7.26029 9.23117 7.16695 8.87783 7.16695C8.6445 7.16695 8.44783 7.21695 8.28783 7.31695C8.12783 7.41029 8.00117 7.53695 7.90783 7.69695C7.82117 7.85695 7.76117 8.03362 7.72783 8.22695C7.7145 8.31362 7.67783 8.37362 7.61783 8.40695C7.55783 8.44029 7.49783 8.45695 7.43783 8.45695H6.54783C6.48783 8.45695 6.43783 8.43695 6.39783 8.39695C6.35783 8.35695 6.33783 8.31029 6.33783 8.25695C6.3445 7.97029 6.4045 7.69362 6.51783 7.42695C6.63117 7.15362 6.7945 6.91362 7.00783 6.70695C7.22783 6.49362 7.4945 6.32362 7.80783 6.19695C8.12117 6.07029 8.4745 6.00695 8.86783 6.00695C9.42117 6.00695 9.87783 6.10029 10.2378 6.28695C10.6045 6.47362 10.8778 6.72695 11.0578 7.04695C11.2445 7.36695 11.3378 7.72695 11.3378 8.12695C11.3378 8.44029 11.2778 8.73029 11.1578 8.99695C11.0378 9.25695 10.8645 9.51029 10.6378 9.75695C10.4112 9.99695 10.1378 10.2436 9.81783 10.497L8.39783 11.937H11.2478C11.3212 11.937 11.3778 11.9603 11.4178 12.007C11.4645 12.047 11.4878 12.1036 11.4878 12.177V12.887C11.4878 12.9536 11.4645 13.0103 11.4178 13.057C11.3778 13.1036 11.3212 13.127 11.2478 13.127H6.46783Z" fill="white"/>
</svg>
